# xmcd
#
# Track frame offsets: 
#        150
#        16995
#        33295
#        47675
#        65275
#        85842
#        113160
#        129727
#        148580
#        166435
#
# Disc length: 2501 seconds
#
# Revision: 4
# Processed by: cddbd v1.5.2PL0 Copyright (c) Steve Scherf et al.
# Submitted via: ExactAudioCopy v1.3
#
DISCID=8009c30a
DTITLE=Tony Terry - Forever Yours
DYEAR=1987
DGENRE=Funk
TTITLE0=Forever Yours
TTITLE1=Lovey Dovey
TTITLE2=Fulltime Girl
TTITLE3=Day Dreaming
TTITLE4=Here With Me
TTITLE5=Shes Fly
TTITLE6=Wassup Wit U
TTITLE7=Up and Down Love
TTITLE8=Young Love
TTITLE9=What Would It Take
EXTD=YEAR: 1987
EXTT0=
EXTT1=
EXTT2=
EXTT3=
EXTT4=
EXTT5=
EXTT6=
EXTT7=
EXTT8=
EXTT9=
PLAYORDER=
